STARTFONT 2.1
COMMENT $XFree86$
COMMENT 
COMMENT  Copyright 1989 by Sun Microsystems, Inc. Mountain View, CA.
COMMENT 
COMMENT  Permission to use, copy, modify, and distribute this software and
COMMENT  its documentation for any purpose and without fee is hereby granted,
COMMENT  provided that the above copyright notices appear in all copies and
COMMENT  that both those copyright notices and this permission notice appear
COMMENT  in supporting documentation, and that the name of Sun Microsystems
COMMENT  not be used in advertising or publicity pertaining to distribution
COMMENT  of the software without specific, written prior permission.  Sun
COMMENT  Microsystems make no representations about the suitability of this
COMMENT  software for any purpose.  It is provided "as is" without express or
COMMENT  implied warranty.
COMMENT 
COMMENT  SUN MICROSYSTEMS DISCLAIM ALL WARRANTIES WITH REGARD TO THIS
COMMENT  SOFTWARE, INCLUDING ALL IMPLIED WARRANTIES OF MERCHANTABILITY AND
COMMENT  FITNESS, IN NO EVENT SHALL SUN MICROSYSTEMS BE LIABLE FOR ANY
COMMENT  SPECIAL, INDIRECT OR CONSEQUENTIAL DAMAGES OR ANY DAMAGES WHATSOEVER
COMMENT  RESULTING FROM LOSS OF USE, DATA OR PROFITS, WHETHER IN AN ACTION OF
COMMENT  CONTRACT, NEGLIGENCE OR OTHER TORTIOUS ACTION, ARISING OUT OF OR IN
COMMENT  CONNECTION WITH THE USE OR PERFORMANCE OF THIS SOFTWARE.
COMMENT 
COMMENT  ** Open Look Glyph Font, 12-pt **
FONT -Sun-OPEN LOOK glyph-----12-120-75-75-P-113-SunOLglyph-1
SIZE 12 72 72
FONTBOUNDINGBOX 47 47 0 -47
STARTPROPERTIES 19
COMMENT Begin LogicalFontDescription
FONTNAME_REGISTRY ""
FAMILY_NAME "OPEN LOOK glyph"
FOUNDRY "Sun"
WEIGHT_NAME ""
SETWIDTH_NAME ""
SLANT ""
ADD_STYLE_NAME ""
PIXEL_SIZE 12
POINT_SIZE 120
RESOLUTION_X 75
RESOLUTION_Y 75
SPACING "P"
AVERAGE_WIDTH 113
CHARSET_REGISTRY "SunOLglyph"
CHARSET_ENCODING "1"
COMMENT END LogicalFontDescription
FACE_NAME "OLGlyph"
DEFAULT_CHAR 0
FONT_DESCENT 47
FONT_ASCENT 0
ENDPROPERTIES
CHARS 234
STARTCHAR vert-scrollbar-outli
ENCODING 1
SWIDTH 96 0
DWIDTH 15 0
BBX 15 47 0 -47
BITMAP
7ffc
8006
8006
8006
8006
8306
8786
8fc6
9fe6
9fe6
8006
8006
8006
8006
8006
fffe
8006
8006
8006
8006
8006
8006
8006
8006
8006
8006
8006
8006
8006
8006
fffe
8006
8006
8006
8006
8006
9fe6
9fe6
8fc6
8786
8306
8006
8006
8006
8006
fffe
7ffc
ENDCHAR
STARTCHAR vert-scrollbar-backw
ENCODING 2
SWIDTH 42 0
DWIDTH 15 0
BBX 15 47 0 -47
BITMAP
7ffc
fffe
fffe
fffe
fffe
fffe
fcfe
f87e
f03e
e01e
e01e
fffe
fffe
fffe
fffe
fffe
8006
8006
8006
8006
8006
8006
8006
8006
8006
8006
8006
8006
8006
8006
fffe
8006
8006
8006
8006
8006
9fe6
9fe6
8fc6
8786
8306
8006
8006
8006
8006
fffe
7ffc
ENDCHAR
STARTCHAR vert-scrollbar-abs
ENCODING 3
SWIDTH 42 0
DWIDTH 15 0
BBX 15 47 0 -47
BITMAP
7ffc
8006
8006
8006
8006
8306
8786
8fc6
9fe6
9fe6
8006
8006
8006
8006
8006
fffe
fffe
fffe
fffe
fffe
fffe
fffe
fffe
fffe
fffe
fffe
fffe
fffe
fffe
fffe
fffe
8006
8006
8006
8006
8006
9fe6
9fe6
8fc6
8786
8306
8006
8006
8006
8006
fffe
7ffc
ENDCHAR
STARTCHAR vert-scrollbar-forwa
ENCODING 4
SWIDTH 42 0
DWIDTH 15 0
BBX 15 47 0 -47
BITMAP
7ffc
8006
8006
8006
8006
8306
8786
8fc6
9fe6
9fe6
8006
8006
8006
8006
8006
fffe
8006
8006
8006
8006
8006
8006
8006
8006
8006
8006
8006
8006
8006
8006
fffe
fffe
fffe
fffe
fffe
fffe
e01e
e01e
f03e
f87e
fcfe
fffe
fffe
fffe
fffe
fffe
7ffc
ENDCHAR
STARTCHAR abbr-vert-sb-outl
ENCODING 5
SWIDTH 42 0
DWIDTH 15 0
BBX 15 32 0 -32
BITMAP
7ffc
8006
8006
8006
8006
8306
8786
8fc6
9fe6
9fe6
8006
8006
8006
8006
8006
fffe
8006
8006
8006
8006
8006
9fe6
9fe6
8fc6
8786
8306
8006
8006
8006
8006
fffe
7ffc
ENDCHAR
STARTCHAR abbr-vert-sb-back
ENCODING 6
SWIDTH 42 0
DWIDTH 15 0
BBX 15 32 0 -32
BITMAP
7ffc
fffe
fffe
fffe
fffe
fcfe
f87e
f03e
e01e
e01e
fffe
fffe
fffe
fffe
fffe
fffe
8006
8006
8006
8006
8006
9fe6
9fe6
8fc6
8786
8306
8006
8006
8006
8006
fffe
7ffc
ENDCHAR
STARTCHAR abbr-vert-sb-forw
ENCODING 7
SWIDTH 42 0
DWIDTH 15 0
BBX 15 32 0 -32
BITMAP
7ffc
8006
8006
8006
8006
8306
8786
8fc6
9fe6
9fe6
8006
8006
8006
8006
8006
fffe
fffe
fffe
fffe
fffe
fffe
e01e
e01e
f03e
f87e
fcfe
fffe
fffe
fffe
fffe
fffe
7ffc
ENDCHAR
STARTCHAR vert-scroll-anchor
ENCODING 8
SWIDTH 42 0
DWIDTH 15 0
BBX 15 6 0 -6
BITMAP
fffe
8002
8002
8002
8002
fffe
ENDCHAR
STARTCHAR vert-scroll-anchor-i
ENCODING 9
SWIDTH 42 0
DWIDTH 15 0
BBX 15 6 0 -6
BITMAP
fffe
fffe
fffe
fffe
fffe
fffe
ENDCHAR
STARTCHAR horiz-scroll-bar-ele
ENCODING 10
SWIDTH 42 0
DWIDTH 47 0
BBX 47 15 0 -15
BITMAP
7ffffffffffc
800100020006
800100020007
80c100020c06
81c100020e06
83c100020f06
87c100020f86
87c100020f86
83c100020f06
81c100020e06
80c100020c06
800100020006
800100020006
fffffffffffe
7ffffffffffd
ENDCHAR
STARTCHAR horiz-scroll-bar-ele
ENCODING 11
SWIDTH 42 0
DWIDTH 47 0
BBX 47 15 0 -15
BITMAP
7ffffffffffc
ffff00020006
ffff00020007
ff3f00020c06
fe3f00020e06
fc3f00020f06
f83f00020f86
f83f00020f86
fc3f00020f06
fe3f00020e06
ff3f00020c06
ffff00020006
ffff00020006
fffffffffffe
7ffffffffffd
ENDCHAR
STARTCHAR horiz-scroll-bar-ele
ENCODING 12
SWIDTH 42 0
DWIDTH 47 0
BBX 47 15 0 -15
BITMAP
7ffffffffffc
8001fffe0006
8001fffe0007
80c1fffe0c06
81c1fffe0e06
83c1fffe0f06
87c1fffe0f86
87c1fffe0f86
83c1fffe0f06
81c1fffe0e06
80c1fffe0c06
8001fffe0006
8001fffe0006
fffffffffffe
7ffffffffffd
ENDCHAR
STARTCHAR horiz-scroll-bar-ele
ENCODING 13
SWIDTH 42 0
DWIDTH 47 0
BBX 47 15 0 -15
BITMAP
7ffffffffffc
80010003fffe
80010003ffff
80c10003f3fe
81c10003f1fe
83c10003f0fe
87c10003f07e
87c10003f07e
83c10003f0fe
81c10003f1fe
80c10003f3fe
80010003fffe
80010003fffe
fffffffffffe
7ffffffffffd
ENDCHAR
STARTCHAR abbrev-horiz-elevato
ENCODING 14
SWIDTH 42 0
DWIDTH 32 0
BBX 32 15 0 -15
BITMAP
7ffffffe
80010003
80010003
80c10603
81c10703
83c10783
87c107c3
87c107c3
83c10783
81c10703
80c10603
80010003
80010003
ffffffff
7ffffffe
ENDCHAR
STARTCHAR abbrev-horiz-elevato
ENCODING 15
SWIDTH 42 0
DWIDTH 32 0
BBX 32 15 0 -15
BITMAP
7ffffffe
ffff0003
ffff0003
ff3f0603
fe3f0703
fc3f0783
f83f07c3
f83f07c3
fc3f0783
fe3f0703
ff3f0603
ffff0003
ffff0003
ffffffff
7ffffffe
ENDCHAR
STARTCHAR abbrev-horiz-elevato
ENCODING 16
SWIDTH 42 0
DWIDTH 32 0
BBX 32 15 0 -15
BITMAP
7ffffffe
8001ffff
8001ffff
80c1f9ff
81c1f8ff
83c1f87f
87c1f83f
87c1f83f
83c1f87f
81c1f8ff
80c1f9ff
8001ffff
8001ffff
ffffffff
7ffffffe
ENDCHAR
STARTCHAR horiz_sb_anchor
ENCODING 17
SWIDTH 42 0
DWIDTH 6 0
BBX 6 15 0 -15
BITMAP
fc
84
84
84
84
84
84
84
84
84
84
84
84
84
fc
ENDCHAR
STARTCHAR <horiz_sb_anchor-inv
ENCODING 18
SWIDTH 42 0
DWIDTH 6 0
BBX 6 15 0 -15
BITMAP
fc
fc
fc
fc
fc
fc
fc
fc
fc
fc
fc
fc
fc
fc
fc
ENDCHAR
STARTCHAR pushpin-out-outline2
ENCODING 19
SWIDTH 42 0
DWIDTH 26 0
BBX 26 12 0 -12
BITMAP
00070000
00048180
00048240
0004fe40
00048240
07fc8240
03fc8240
0004fe40
6004ffc0
900783c0
90078180
60070000
ENDCHAR
STARTCHAR pushpin-in-outline2d
ENCODING 20
SWIDTH 42 0
DWIDTH 13 0
BBX 13 13 0 -13
BITMAP
01c0
0e30
3410
4808
4808
8808
8c10
8630
c7f0
41e0
70e0
ffc0
cf00
ENDCHAR
STARTCHAR def_pushpin-out
ENCODING 21
SWIDTH 42 0
DWIDTH 26 0
BBX 26 16 0 -16
BITMAP
00070000
00048180
00048240
0004fe40
00048240
07fc8240
03fc8240
0004fe40
3c04ffc0
420783c0
99078180
a5070000
a5000000
99000000
42000000
3c000000
ENDCHAR
STARTCHAR abbrev_menu_button
ENCODING 22
SWIDTH 96 0
DWIDTH 16 0
BBX 16 15 0 -15
BITMAP
7ffc
8002
8003
8003
8fe3
8823
8443
8443
8283
8283
8103
8003
8003
7fff
3ffe
ENDCHAR
STARTCHAR abbrev_menu_button_i
ENCODING 23
SWIDTH 96 0
DWIDTH 16 0
BBX 16 15 0 -15
BITMAP
7ffc
8002
bffb
bffb
b01b
b7db
bbbb
bbbb
bd7b
bd7b
befb
bffb
8003
7ffe
3ffc
ENDCHAR
STARTCHAR MenuButtonLeftPart1
ENCODING 24
SWIDTH 96 0
DWIDTH 9 0
BBX 11 20 0 -20
BITMAP
0380
0c00
1000
2000
4000
4000
8000
8000
8000
8000
8000
8000
8000
4000
4000
2000
0000
0000
0000
0000
ENDCHAR
STARTCHAR MenuButtonLeftPart2
ENCODING 25
SWIDTH 96 0
DWIDTH 9 0
BBX 9 20 0 -20
BITMAP
0000
0000
0000
0000
0000
0000
0000
0000
0000
0000
0000
0000
0000
0000
0000
0000
1000
0c00
0380
0000
ENDCHAR
STARTCHAR MenuButtonLeftPart1
ENCODING 26
SWIDTH 96 0
DWIDTH 9 0
BBX 9 20 0 -20
BITMAP
0000
0380
0f80
1f80
3f80
3f80
7f80
7f80
7f80
7f80
7f80
7f80
7f80
3f80
3f80
1f80
0f80
0380
0000
0000
ENDCHAR
STARTCHAR MenuButtonRightPart1
ENCODING 27
SWIDTH 96 0
DWIDTH 9 0
BBX 9 20 0 -20
BITMAP
0000
0000
0000
0200
0100
0100
0080
0080
0080
0080
0080
0080
0080
0100
0100
0200
0400
1800
e000
0000
ENDCHAR
STARTCHAR MenuButtonRightPart2
ENCODING 28
SWIDTH 96 0
DWIDTH 9 0
BBX 9 18 0 -18
BITMAP
e000
1800
0400
0000
0000
0000
0000
0000
0000
0000
0000
0000
0000
0000
0000
0000
0000
0000
ENDCHAR
STARTCHAR MenuButtonLeftPart1
ENCODING 29
SWIDTH 96 0
DWIDTH 9 0
BBX 9 20 0 -20
BITMAP
0000
e000
f800
fc00
fe00
fe00
ff00
ff00
ff00
ff00
ff00
ff00
ff00
fe00
fe00
fc00
f800
e000
0000
0000
ENDCHAR
STARTCHAR MenuMiddleTop1
ENCODING 30
SWIDTH 96 0
DWIDTH 1 0
BBX 1 18 0 -18
BITMAP
80
00
00
00
00
00
00
00
00
00
00
00
00
00
00
00
00
00
ENDCHAR
STARTCHAR MenuMiddleTop2
ENCODING 31
SWIDTH 96 0
DWIDTH 2 0
BBX 2 18 0 -18
BITMAP
c0
00
00
00
00
00
00
00
00
00
00
00
00
00
00
00
00
00
ENDCHAR
STARTCHAR MenuMiddleTop4
ENCODING 32
SWIDTH 96 0
DWIDTH 4 0
BBX 4 18 0 -18
BITMAP
f0
00
00
00
00
00
00
00
00
00
00
00
00
00
00
00
00
00
ENDCHAR
STARTCHAR MenuMiddleTop8
ENCODING 33
SWIDTH 96 0
DWIDTH 8 0
BBX 8 18 0 -18
BITMAP
ff
00
00
00
00
00
00
00
00
00
00
00
00
00
00
00
00
00
ENDCHAR
STARTCHAR MenuMiddleTop16
ENCODING 34
SWIDTH 96 0
DWIDTH 16 0
BBX 16 18 0 -18
BITMAP
ffff
0000
0000
0000
0000
0000
0000
0000
0000
0000
0000
0000
0000
0000
0000
0000
0000
0000
ENDCHAR
STARTCHAR ButtonMiddle-1
ENCODING 35
SWIDTH 96 0
DWIDTH 1 0
BBX 1 19 0 -19
BITMAP
00
00
00
00
00
00
00
00
00
00
00
00
00
00
00
00
00
00
80
ENDCHAR
STARTCHAR #ButtonMiddle-2
ENCODING 36
SWIDTH 96 0
DWIDTH 2 0
BBX 2 19 0 -19
BITMAP
00
00
00
00
00
00
00
00
00
00
00
00
00
00
00
00
00
00
c0
ENDCHAR
STARTCHAR ButtonMiddle-4
ENCODING 37
SWIDTH 96 0
DWIDTH 4 0
BBX 4 19 0 -19
BITMAP
00
00
00
00
00
00
00
00
00
00
00
00
00
00
00
00
00
00
f0
ENDCHAR
STARTCHAR ButtonMiddle-8
ENCODING 38
SWIDTH 96 0
DWIDTH 8 0
BBX 8 19 0 -19
BITMAP
00
00
00
00
00
00
00
00
00
00
00
00
00
00
00
00
00
00
ff
ENDCHAR
STARTCHAR ButtonMiddle-16
ENCODING 39
SWIDTH 96 0
DWIDTH 16 0
BBX 16 19 0 -19
BITMAP
0000
0000
0000
0000
0000
0000
0000
0000
0000
0000
0000
0000
0000
0000
0000
0000
0000
0000
ffff
ENDCHAR
STARTCHAR MenuMiddleMiddle1
ENCODING 40
SWIDTH 96 0
DWIDTH 1 0
BBX 1 19 0 -19
BITMAP
00
80
80
80
80
80
80
80
80
80
80
80
80
80
80
80
80
80
00
ENDCHAR
STARTCHAR MenuMiddleMiddle2
ENCODING 41
SWIDTH 96 0
DWIDTH 2 0
BBX 2 19 0 -19
BITMAP
00
c0
c0
c0
c0
c0
c0
c0
c0
c0
c0
c0
c0
c0
c0
c0
c0
c0
00
ENDCHAR
STARTCHAR MenuMiddleMiddle4
ENCODING 42
SWIDTH 96 0
DWIDTH 4 0
BBX 4 19 0 -19
BITMAP
00
f0
f0
f0
f0
f0
f0
f0
f0
f0
f0
f0
f0
f0
f0
f0
f0
f0
00
ENDCHAR
STARTCHAR MenuMiddleMiddle8
ENCODING 43
SWIDTH 96 0
DWIDTH 8 0
BBX 8 19 0 -19
BITMAP
00
ff
ff
ff
ff
ff
ff
ff
ff
ff
ff
ff
ff
ff
ff
ff
ff
ff
00
ENDCHAR
STARTCHAR MenuMiddleMiddle16
ENCODING 44
SWIDTH 96 0
DWIDTH 16 0
BBX 16 19 0 -19
BITMAP
0000
ffff
ffff
ffff
ffff
ffff
ffff
ffff
ffff
ffff
ffff
ffff
ffff
ffff
ffff
ffff
ffff
ffff
0000
ENDCHAR
STARTCHAR VertMenuButtonTop
ENCODING 45
SWIDTH 96 0
DWIDTH 0 0
BBX 7 7 0 -7
BITMAP
fe
80
40
40
20
20
00
ENDCHAR
STARTCHAR VertMenuButtonSide
ENCODING 46
SWIDTH 96 0
DWIDTH 0 0
BBX 7 7 0 -7
BITMAP
00
02
04
04
08
08
10
ENDCHAR
STARTCHAR VertMenuButtonMiddle
ENCODING 47
SWIDTH 96 0
DWIDTH 7 0
BBX 7 7 0 -7
BITMAP
00
7c
38
38
10
10
00
ENDCHAR
STARTCHAR HorizMenuButtonTop
ENCODING 48
SWIDTH 96 0
DWIDTH 0 0
BBX 7 7 0 -7
BITMAP
c0
b0
8c
80
80
80
80
ENDCHAR
STARTCHAR HorizMenuButtonSide
ENCODING 49
SWIDTH 96 0
DWIDTH 0 0
BBX 7 7 0 -7
BITMAP
00
00
00
02
0c
30
40
ENDCHAR
STARTCHAR HorizMenuButtonMiddl
ENCODING 50
SWIDTH 96 0
DWIDTH 7 0
BBX 7 7 0 -7
BITMAP
00
40
70
7c
70
40
00
ENDCHAR
STARTCHAR AbbrevMenuButtonUL
ENCODING 51
SWIDTH 96 0
DWIDTH 16 0
BBX 16 15 0 -15
BITMAP
7ffe
8000
8000
8000
8000
8000
8000
8000
8000
8000
8000
8000
8000
8000
0000
ENDCHAR
STARTCHAR AbbrevMenuButtonLR
ENCODING 52
SWIDTH 96 0
DWIDTH 16 0
BBX 16 15 0 -15
BITMAP
0000
0001
0001
0001
0001
0001
0001
0001
0001
0001
0001
0001
0001
0001
7ffe
ENDCHAR
STARTCHAR AbbrevMenuButtonMidd
ENCODING 53
SWIDTH 96 0
DWIDTH 16 0
BBX 16 15 0 -15
BITMAP
0000
7ffe
7ffe
7ffe
7ffe
7ffe
7ffe
7ffe
7ffe
7ffe
7ffe
7ffe
7ffe
7ffe
0000
ENDCHAR
STARTCHAR VertScrollbarWhite
ENCODING 54
SWIDTH 96 0
DWIDTH 15 0
BBX 15 47 0 -47
BITMAP
7ffc
8000
8000
8000
8000
8000
8000
8000
8000
8000
8000
8000
8000
8000
8000
fff8
8000
8000
8000
8000
8000
8000
8000
8000
8000
8000
8000
8000
8000
8000
8000
8000
8000
8000
8000
8000
8000
8000
8000
8000
8000
8000
8000
8000
8000
8000
0000
ENDCHAR
STARTCHAR VertSb-BG3arrows
ENCODING 55
SWIDTH 96 0
DWIDTH 14 0
BBX 14 46 0 -46
BITMAP
0000
0004
0004
0004
0004
0304
0784
0fc4
1fe4
1fe4
0004
0004
0004
0004
0004
0004
0004
0004
0004
0004
0004
0004
0004
0004
0004
0004
0004
0004
0004
0004
7ffc
0004
0004
0004
0004
0004
1fe4
1fe4
0fc4
0784
0304
0004
0004
0004
0004
7ffc
ENDCHAR
STARTCHAR VertSb-ToPFill
ENCODING 56
SWIDTH 96 0
DWIDTH 15 0
BBX 15 15 0 -15
BITMAP
8002
7ff8
7ff8
7ff8
7ff8
7cf8
7878
7038
6018
6018
7ff8
7ff8
7ff8
7ff8
7ff8
ENDCHAR
STARTCHAR HorizScrollbarWhite
ENCODING 57
SWIDTH 96 0
DWIDTH 46 0
BBX 46 14 0 -14
BITMAP
fffffffffffc
800100000000
800100000000
800100000000
800100000000
800100000000
800100000000
800100000000
800100000000
800100000000
800100000000
800100000000
800100000000
800000000000
ENDCHAR
STARTCHAR HorizScrollbarBG3
ENCODING 58
SWIDTH 96 0
DWIDTH 47 0
BBX 46 14 0 -14
BITMAP
000000000000
000000020004
000000020004
00c000020c04
01c000020e04
03c000020f04
07c000020f84
07c000020f84
03c000020f04
01c000020e04
00c000020c04
000000020004
000000020004
7ffffffffffc
ENDCHAR
STARTCHAR Vert-Sb-BotBox
ENCODING 59
SWIDTH 96 0
DWIDTH 13 0
BBX 13 16 0 -16
BITMAP
0000
7ff8
7ff8
7ff8
7ff8
7ff8
6018
6018
7038
7878
7cf8
7ff8
7ff8
7ff8
7ff8
0000
ENDCHAR
STARTCHAR HorizSliderTopLeft
ENCODING 60
SWIDTH 96 0
DWIDTH 10 0
BBX 10 14 0 -14
BITMAP
7f80
8000
8000
8000
8000
8000
8000
8000
8000
8000
8000
8000
8000
0000
ENDCHAR
STARTCHAR HorizSliderBottomRig
ENCODING 61
SWIDTH 96 0
DWIDTH 10 0
BBX 10 14 0 -14
BITMAP
0000
0040
0040
0040
0040
0040
0040
0040
0040
0040
0040
0040
0040
7f80
ENDCHAR
STARTCHAR HorizSliderMiddle
ENCODING 62
SWIDTH 96 0
DWIDTH 10 0
BBX 10 14 0 -14
BITMAP
8040
7f80
7f80
7f80
7f80
7f80
7f80
7f80
7f80
7f80
7f80
7f80
7f80
8040
ENDCHAR
STARTCHAR HorizChannelTopLeft
ENCODING 63
SWIDTH 96 0
DWIDTH 3 0
BBX 3 5 0 -5
BITMAP
60
80
80
80
00
ENDCHAR
STARTCHAR HorizChannelBottomLe
ENCODING 64
SWIDTH 96 0
DWIDTH 3 0
BBX 3 5 0 -5
BITMAP
00
00
00
00
60
ENDCHAR
STARTCHAR HorizChannelTopRight
ENCODING 65
SWIDTH 96 0
DWIDTH 3 0
BBX 3 5 0 -5
BITMAP
c0
00
00
00
00
ENDCHAR
STARTCHAR HorizChannelBottomRi
ENCODING 66
SWIDTH 96 0
DWIDTH 3 0
BBX 3 5 0 -5
BITMAP
00
20
20
20
c0
ENDCHAR
STARTCHAR HorizChannelBottom1
ENCODING 67
SWIDTH 96 0
DWIDTH 1 0
BBX 1 5 0 -5
BITMAP
00
00
00
00
80
ENDCHAR
STARTCHAR HorizChannelBottom2
ENCODING 68
SWIDTH 96 0
DWIDTH 2 0
BBX 2 5 0 -5
BITMAP
00
00
00
00
c0
ENDCHAR
STARTCHAR HorizChannelBottom4
ENCODING 69
SWIDTH 96 0
DWIDTH 4 0
BBX 4 5 0 -5
BITMAP
00
00
00
00
f0
ENDCHAR
STARTCHAR HorizChannelBottom8
ENCODING 70
SWIDTH 96 0
DWIDTH 8 0
BBX 8 5 0 -5
BITMAP
00
00
00
00
ff
ENDCHAR
STARTCHAR HorizChannelBottom16
ENCODING 71
SWIDTH 96 0
DWIDTH 16 0
BBX 16 5 0 -5
BITMAP
0000
0000
0000
0000
ffff
ENDCHAR
STARTCHAR HorizChannelMiddle1
ENCODING 72
SWIDTH 96 0
DWIDTH 1 0
BBX 1 5 0 -5
BITMAP
00
80
80
80
00
ENDCHAR
STARTCHAR HorizChannelMiddle2
ENCODING 73
SWIDTH 96 0
DWIDTH 2 0
BBX 2 5 0 -5
BITMAP
00
c0
c0
c0
00
ENDCHAR
STARTCHAR HorizChannelMiddle4
ENCODING 74
SWIDTH 96 0
DWIDTH 4 0
BBX 4 5 0 -5
BITMAP
00
f0
f0
f0
00
ENDCHAR
STARTCHAR HorizChannelMiddle8
ENCODING 75
SWIDTH 96 0
DWIDTH 8 0
BBX 8 5 0 -5
BITMAP
00
ff
ff
ff
00
ENDCHAR
STARTCHAR HorizChannelMiddle16
ENCODING 76
SWIDTH 96 0
DWIDTH 16 0
BBX 16 5 0 -5
BITMAP
0000
ffff
ffff
ffff
0000
ENDCHAR
STARTCHAR HorizChannelLeftMidd
ENCODING 77
SWIDTH 96 0
DWIDTH 3 0
BBX 3 5 0 -5
BITMAP
00
60
60
60
00
ENDCHAR
STARTCHAR HorizChannelRightMid
ENCODING 78
SWIDTH 96 0
DWIDTH 3 0
BBX 3 5 0 -5
BITMAP
00
c0
c0
c0
00
ENDCHAR
STARTCHAR VertChannelTopLeft
ENCODING 79
SWIDTH 96 0
DWIDTH 5 0
BBX 5 3 0 -3
BITMAP
70
80
80
ENDCHAR
STARTCHAR VertChannelTopRight
ENCODING 80
SWIDTH 96 0
DWIDTH 5 0
BBX 5 3 0 -3
BITMAP
00
08
08
ENDCHAR
STARTCHAR VertChannelTopFill
ENCODING 81
SWIDTH 96 0
DWIDTH 5 0
BBX 5 3 0 -3
BITMAP
00
70
70
ENDCHAR
STARTCHAR VertChannelBottomLef
ENCODING 82
SWIDTH 96 0
DWIDTH 5 0
BBX 5 3 0 -3
BITMAP
80
80
00
ENDCHAR
STARTCHAR VertChannelBottomRig
ENCODING 83
SWIDTH 96 0
DWIDTH 5 0
BBX 5 3 0 -3
BITMAP
08
08
70
ENDCHAR
STARTCHAR VertChannelBottomFil
ENCODING 84
SWIDTH 96 0
DWIDTH 5 0
BBX 5 3 0 -3
BITMAP
70
70
00
ENDCHAR
STARTCHAR VertSliderTopLeft
ENCODING 85
SWIDTH 96 0
DWIDTH 14 0
BBX 14 10 0 -10
BITMAP
7ff8
8000
8000
8000
8000
8000
8000
8000
8000
0000
ENDCHAR
STARTCHAR VertSliderBottomRigh
ENCODING 86
SWIDTH 96 0
DWIDTH 14 0
BBX 14 10 0 -10
BITMAP
0000
0004
0004
0004
0004
0004
0004
0004
0004
7ff8
ENDCHAR
STARTCHAR VertSliderFill
ENCODING 87
SWIDTH 96 0
DWIDTH 14 0
BBX 14 10 0 -10
BITMAP
8004
7ff8
7ff8
7ff8
7ff8
7ff8
7ff8
7ff8
7ff8
8004
ENDCHAR
STARTCHAR ULResizeUL
ENCODING 88
SWIDTH 96 0
DWIDTH 11 0
BBX 11 11 0 -11
BITMAP
ffe0
8000
8000
8000
8000
8000
8000
8000
8000
8000
8000
ENDCHAR
STARTCHAR ULResizeLR
ENCODING 89
SWIDTH 96 0
DWIDTH 11 0
BBX 11 11 0 -11
BITMAP
0000
0020
0020
0020
0fe0
0800
0800
0800
0800
0800
7800
ENDCHAR
STARTCHAR ULResizeFill
ENCODING 90
SWIDTH 96 0
DWIDTH 11 0
BBX 11 11 0 -11
BITMAP
0000
7fc0
7fc0
7fc0
7000
7000
7000
7000
7000
7000
0000
ENDCHAR
STARTCHAR URResizeUL
ENCODING 91
SWIDTH 96 0
DWIDTH 11 0
BBX 11 11 0 -11
BITMAP
ffe0
8000
8000
8000
8000
0200
0200
0200
0200
0200
0200
ENDCHAR
STARTCHAR URResizeLR
ENCODING 92
SWIDTH 96 0
DWIDTH 11 0
BBX 11 11 0 -11
BITMAP
0000
0020
0020
0020
7e20
0020
0020
0020
0020
0020
01e0
ENDCHAR
STARTCHAR URResizeFill
ENCODING 93
SWIDTH 96 0
DWIDTH 11 0
BBX 11 11 0 -11
BITMAP
0000
7fc0
7fc0
7fc0
01c0
01c0
01c0
01c0
01c0
01c0
0000
ENDCHAR
STARTCHAR LRResizeUL
ENCODING 94
SWIDTH 96 0
DWIDTH 11 0
BBX 11 11 0 -11
BITMAP
03e0
0200
0200
0200
0200
0200
fe00
8000
8000
8000
8000
ENDCHAR
STARTCHAR LRResizeLR
ENCODING 95
SWIDTH 96 0
DWIDTH 11 0
BBX 11 11 0 -11
BITMAP
0000
0020
0020
0020
0020
0020
0020
0020
0020
0020
7fe0
ENDCHAR
STARTCHAR LRResizeFill
ENCODING 96
SWIDTH 96 0
DWIDTH 11 0
BBX 11 11 0 -11
BITMAP
0000
01c0
01c0
01c0
01c0
01c0
01c0
7fc0
7fc0
7fc0
0000
ENDCHAR
STARTCHAR LLResizeUL
ENCODING 97
SWIDTH 96 0
DWIDTH 11 0
BBX 11 11 0 -11
BITMAP
f800
8000
8000
8000
8000
8000
87e0
8000
8000
8000
8000
ENDCHAR
STARTCHAR LLResizeLR
ENCODING 98
SWIDTH 96 0
DWIDTH 11 0
BBX 11 11 0 -11
BITMAP
0000
0800
0800
0800
0800
0800
0800
0020
0020
0020
7fe0
ENDCHAR
STARTCHAR LLResizeFill
ENCODING 99
SWIDTH 96 0
DWIDTH 11 0
BBX 11 11 0 -11
BITMAP
0000
7000
7000
7000
7000
7000
7000
7fc0
7fc0
7fc0
0000
ENDCHAR
STARTCHAR PushPinOutTop
ENCODING 100
SWIDTH 96 0
DWIDTH 26 0
BBX 26 12 0 -12
BITMAP
00070000
00040180
00040200
00047e00
00040200
07fc0200
00040200
00040200
00040000
10040000
10040000
60040000
ENDCHAR
STARTCHAR PushPinOutBottom
ENCODING 101
SWIDTH 96 0
DWIDTH 26 0
BBX 26 12 0 -12
BITMAP
00000000
00008000
00008040
00008040
00008040
00008040
03f88240
0000fe40
6000ffc0
8003c3c0
80038180
00030000
ENDCHAR
STARTCHAR PushPinOutMiddle
ENCODING 102
SWIDTH 96 0
DWIDTH 26 0
BBX 26 12 0 -12
BITMAP
00000000
00030000
00030180
00030180
00037d80
00037d80
00037d80
00030180
00030000
60000000
60000000
00000000
ENDCHAR
STARTCHAR PushPinInTop
ENCODING 103
SWIDTH 96 0
DWIDTH 13 0
BBX 13 13 0 -13
BITMAP
01c0
0e20
3400
4800
4800
8800
8c00
8000
c000
4000
4000
8000
0000
ENDCHAR
STARTCHAR PushPinInBottom
ENCODING 104
SWIDTH 96 0
DWIDTH 13 0
BBX 13 13 0 -13
BITMAP
0000
0010
0010
0008
0008
0008
0010
0630
07f0
01e0
30e0
7fc0
cf00
ENDCHAR
STARTCHAR PushPinInMiddle
ENCODING 105
SWIDTH 96 0
DWIDTH 13 0
BBX 13 13 0 -13
BITMAP
0000
01c0
0be0
37f0
37f0
77f0
73e0
79c0
3800
3e00
0f00
0000
0000
ENDCHAR
STARTCHAR DefaultButtonLeftEnd
ENCODING 106
SWIDTH 96 0
DWIDTH 9 0
BBX 9 18 0 -18
BITMAP
0000
0000
0180
0600
0800
1000
1000
2000
2000
2000
2000
2000
1000
1000
0800
0600
0180
0000
ENDCHAR
STARTCHAR DefaultButtonRightEn
ENCODING 107
SWIDTH 96 0
DWIDTH 9 0
BBX 9 18 0 -18
BITMAP
0000
0000
c000
3000
0800
0400
0400
0200
0200
0200
0200
0200
0400
0400
0800
3000
c000
0000
ENDCHAR
STARTCHAR DefaultButtonMiddle1
ENCODING 108
SWIDTH 96 0
DWIDTH 1 0
BBX 1 18 0 -18
BITMAP
00
00
80
00
00
00
00
00
00
00
00
00
00
00
00
00
80
00
ENDCHAR
STARTCHAR DefaultButtonMiddle
ENCODING 109
SWIDTH 96 0
DWIDTH 2 0
BBX 2 18 0 -18
BITMAP
00
00
c0
00
00
00
00
00
00
00
00
00
00
00
00
00
c0
00
ENDCHAR
STARTCHAR DefaultButtonMiddle4
ENCODING 110
SWIDTH 96 0
DWIDTH 4 0
BBX 4 18 0 -18
BITMAP
00
00
f0
00
00
00
00
00
00
00
00
00
00
00
00
00
f0
00
ENDCHAR
STARTCHAR DefaultButtonMiddle8
ENCODING 111
SWIDTH 96 0
DWIDTH 8 0
BBX 8 18 0 -18
BITMAP
00
00
ff
00
00
00
00
00
00
00
00
00
00
00
00
00
ff
00
ENDCHAR
STARTCHAR DefaultButtonMiddle1
ENCODING 112
SWIDTH 96 0
DWIDTH 16 0
BBX 16 18 0 -18
BITMAP
0000
0000
ffff
0000
0000
0000
0000
0000
0000
0000
0000
0000
0000
0000
0000
0000
ffff
0000
ENDCHAR
STARTCHAR BaseOff-SpecialChar
ENCODING 113
SWIDTH 96 0
DWIDTH 1 0
BBX 1 7 0 -7
BITMAP
80
80
80
80
80
80
80
ENDCHAR
STARTCHAR UncheckedBoxUL
ENCODING 114
SWIDTH 96 0
DWIDTH 15 0
BBX 15 14 0 -14
BITMAP
0000
fff8
8000
8000
8000
8000
8000
8000
8000
8000
8000
8000
8000
8000
ENDCHAR
STARTCHAR UncheckedBoxLR
ENCODING 115
SWIDTH 96 0
DWIDTH 15 0
BBX 15 14 0 -14
BITMAP
0000
0000
0008
0008
0008
0008
0008
0008
0008
0008
0008
0008
0008
7ff8
ENDCHAR
STARTCHAR UncheckedBoxFill
ENCODING 116
SWIDTH 96 0
DWIDTH 15 0
BBX 15 14 0 -14
BITMAP
0000
0000
7ff0
7ff0
7ff0
7ff0
7ff0
7ff0
7ff0
7ff0
7ff0
7ff0
7ff0
0000
ENDCHAR
STARTCHAR CheckMark
ENCODING 117
SWIDTH 96 0
DWIDTH 15 0
BBX 15 14 0 -14
BITMAP
0002
000c
0018
0030
0060
18e0
3dc0
7fc0
3f80
1f80
0f00
0700
0200
0000
ENDCHAR
STARTCHAR CheckedBoxFill
ENCODING 118
SWIDTH 96 0
DWIDTH 15 0
BBX 15 14 0 -14
BITMAP
0000
0030
7fe0
7fc8
7f98
6710
4230
0030
4070
6070
70f0
78f0
7df0
0000
ENDCHAR
STARTCHAR UncheckedBoxOutline
ENCODING 119
SWIDTH 96 0
DWIDTH 15 0
BBX 15 14 0 -14
BITMAP
0000
fff8
8008
8008
8008
8008
8008
8008
8008
8008
8008
8008
8008
fff8
ENDCHAR
STARTCHAR HorizGaugeUL
ENCODING 120
SWIDTH 96 0
DWIDTH 4 0
BBX 4 11 0 -11
BITMAP
10
20
40
80
80
80
80
80
40
00
00
ENDCHAR
STARTCHAR HorizGaugeLL
ENCODING 121
SWIDTH 96 0
DWIDTH 4 0
BBX 4 11 0 -11
BITMAP
00
00
00
00
00
00
00
00
00
20
10
ENDCHAR
STARTCHAR HorizGaugeUR
ENCODING 122
SWIDTH 96 0
DWIDTH 4 0
BBX 4 11 0 -11
BITMAP
80
40
00
00
00
00
00
00
00
00
00
ENDCHAR
STARTCHAR HorizGaugeLR
ENCODING 123
SWIDTH 96 0
DWIDTH 4 0
BBX 4 11 0 -11
BITMAP
00
00
20
10
10
10
10
10
20
40
80
ENDCHAR
STARTCHAR HorizGaugeBottom1
ENCODING 124
SWIDTH 96 0
DWIDTH 1 0
BBX 1 11 0 -11
BITMAP
00
00
00
00
00
00
00
00
00
00
80
ENDCHAR
STARTCHAR HorizGaugeBottom2
ENCODING 125
SWIDTH 96 0
DWIDTH 2 0
BBX 2 11 0 -11
BITMAP
00
00
00
00
00
00
00
00
00
00
c0
ENDCHAR
STARTCHAR HorizGaugeBottom4
ENCODING 126
SWIDTH 96 0
DWIDTH 4 0
BBX 4 11 0 -11
BITMAP
00
00
00
00
00
00
00
00
00
00
f0
ENDCHAR
STARTCHAR HorizGaugeBottom8
ENCODING 127
SWIDTH 96 0
DWIDTH 8 0
BBX 8 11 0 -11
BITMAP
00
00
00
00
00
00
00
00
00
00
ff
ENDCHAR
STARTCHAR HorizGaugeBottom16
ENCODING 128
SWIDTH 96 0
DWIDTH 16 0
BBX 16 11 0 -11
BITMAP
0000
0000
0000
0000
0000
0000
0000
0000
0000
0000
ffff
ENDCHAR
STARTCHAR VertGaugeUL
ENCODING 129
SWIDTH 96 0
DWIDTH 11 0
BBX 11 4 0 -4
BITMAP
1f00
2080
4000
8000
ENDCHAR
STARTCHAR VertGaugeUR
ENCODING 130
SWIDTH 96 0
DWIDTH 11 0
BBX 11 4 0 -4
BITMAP
0000
0000
0040
0020
ENDCHAR
STARTCHAR VertGaugeLL
ENCODING 131
SWIDTH 96 0
DWIDTH 11 0
BBX 11 4 0 -4
BITMAP
8000
4000
0000
0000
ENDCHAR
STARTCHAR VertGaugeLR
ENCODING 132
SWIDTH 96 0
DWIDTH 11 0
BBX 11 4 0 -4
BITMAP
0020
0040
2080
1f00
ENDCHAR
STARTCHAR VertAbbrevScrollbarU
ENCODING 133
SWIDTH 97 0
DWIDTH 15 0
BBX 15 32 0 -32
BITMAP
7ffc
8000
8000
8000
8000
8000
8000
8000
8000
8000
8000
8000
8000
8000
8000
8000
8000
8000
8000
8000
8000
8000
8000
8000
8000
8000
8000
8000
8000
8000
8000
0000
ENDCHAR
STARTCHAR VertAbbrevScrollbarL
ENCODING 134
SWIDTH 97 0
DWIDTH 14 0
BBX 14 31 0 -31
BITMAP
0000
0004
0004
0004
0004
0304
0784
0fc4
1fe4
1fe4
0004
0004
0004
0004
0004
7ffc
0004
0004
0004
0004
0004
1fe4
1fe4
0fc4
0784
0304
0004
0004
0004
0004
7ffc
ENDCHAR
STARTCHAR Horiz-sb-right-fill
ENCODING 135
SWIDTH 96 0
DWIDTH 15 0
BBX 16 14 0 -14
BITMAP
0000
7ffe
7ffe
7cfe
7c7e
7c3e
7c1e
7c1e
7c3e
7c7e
7cfe
7ffe
7ffe
0000
ENDCHAR
STARTCHAR HorizAbbrevScrollbar
ENCODING 136
SWIDTH 96 0
DWIDTH 31 0
BBX 31 14 0 -14
BITMAP
fffffffe
80000000
80000000
80000000
80000000
80000000
80000000
80000000
80000000
80000000
80000000
80000000
80000000
80000000
ENDCHAR
STARTCHAR HorizAbbrevScrollbar
ENCODING 137
SWIDTH 96 0
DWIDTH 31 0
BBX 31 14 0 -14
BITMAP
00000000
00010002
00010002
00c10602
01c10702
03c10782
07c107c2
07c107c2
03c10782
01c10702
00c10602
00010002
00010002
7ffffffe
ENDCHAR
STARTCHAR Hori-sb-left-fill
ENCODING 138
SWIDTH 96 0
DWIDTH 15 0
BBX 15 15 0 -15
BITMAP
8000
7ffe
7ffe
7f3e
7e3e
7c3e
783e
783e
7c3e
7e3e
7f3e
7ffe
7ffe
0000
8000
ENDCHAR
STARTCHAR buttonOutlineLeftcap
ENCODING 139
SWIDTH 96 0
DWIDTH 9 0
BBX 9 20 0 -20
BITMAP
0380
0c00
1000
2000
4000
4000
8000
8000
8000
8000
8000
8000
8000
4000
4000
2000
1000
0c00
0780
0380
ENDCHAR
STARTCHAR button-outl-right-en
ENCODING 140
SWIDTH 96 0
DWIDTH 10 0
BBX 10 20 0 -20
BITMAP
e000
1800
0400
0200
0100
0180
0080
00c0
00c0
00c0
00c0
00c0
00c0
01c0
0180
0380
0700
1e00
fc00
f000
ENDCHAR
STARTCHAR button-outlin-middle
ENCODING 141
SWIDTH 42 0
DWIDTH 1 0
BBX 1 20 0 -20
BITMAP
80
00
00
00
00
00
00
00
00
00
00
00
00
00
00
00
00
00
80
80
ENDCHAR
STARTCHAR button-outlin-middle
ENCODING 142
SWIDTH 42 0
DWIDTH 2 0
BBX 2 20 0 -20
BITMAP
c0
00
00
00
00
00
00
00
00
00
00
00
00
00
00
00
00
00
c0
c0
ENDCHAR
STARTCHAR button-outlin-middle
ENCODING 143
SWIDTH 42 0
DWIDTH 4 0
BBX 4 20 0 -20
BITMAP
f0
00
00
00
00
00
00
00
00
00
00
00
00
00
00
00
00
00
f0
f0
ENDCHAR
STARTCHAR button-outlin-middle
ENCODING 144
SWIDTH 42 0
DWIDTH 8 0
BBX 8 20 0 -20
BITMAP
ff
00
00
00
00
00
00
00
00
00
00
00
00
00
00
00
00
00
ff
ff
ENDCHAR
STARTCHAR button-outlin-middle
ENCODING 145
SWIDTH 42 0
DWIDTH 16 0
BBX 16 20 0 -20
BITMAP
ffff
0000
0000
0000
0000
0000
0000
0000
0000
0000
0000
0000
0000
0000
0000
0000
0000
0000
ffff
ffff
ENDCHAR
STARTCHAR button-fill-2d-lefte
ENCODING 146
SWIDTH 96 0
DWIDTH 9 0
BBX 9 17 0 -17
BITMAP
0000
0000
0180
0780
0f80
1f80
1f80
3f80
3f80
3f80
3f80
3f80
1f80
1f80
0f80
0780
0180
ENDCHAR
STARTCHAR button-fill-2d-Right
ENCODING 147
SWIDTH 96 0
DWIDTH 7 0
BBX 7 20 0 -20
BITMAP
00
00
c0
f0
f8
fc
fc
fe
fe
fe
fe
fe
fc
fc
f8
f0
c0
00
00
00
ENDCHAR
STARTCHAR button-fill-2d-middl
ENCODING 148
SWIDTH 96 0
DWIDTH 1 0
BBX 1 20 0 -20
BITMAP
00
00
80
80
80
80
80
80
80
80
80
80
80
80
80
80
80
00
00
00
ENDCHAR
STARTCHAR button-fill-2d-middl
ENCODING 149
SWIDTH 96 0
DWIDTH 2 0
BBX 2 20 0 -20
BITMAP
00
00
c0
c0
c0
c0
c0
c0
c0
c0
c0
c0
c0
c0
c0
c0
c0
00
00
00
ENDCHAR
STARTCHAR button-fill-2d-middl
ENCODING 150
SWIDTH 96 0
DWIDTH 4 0
BBX 4 20 0 -20
BITMAP
00
00
f0
f0
f0
f0
f0
f0
f0
f0
f0
f0
f0
f0
f0
f0
f0
00
00
00
ENDCHAR
STARTCHAR Button-fill-2d_middl
ENCODING 151
SWIDTH 96 0
DWIDTH 8 0
BBX 8 20 0 -20
BITMAP
00
00
ff
ff
ff
ff
ff
ff
ff
ff
ff
ff
ff
ff
ff
ff
ff
00
00
00
ENDCHAR
STARTCHAR Button-fill-2d_middl
ENCODING 152
SWIDTH 96 0
DWIDTH 16 0
BBX 16 20 0 -20
BITMAP
0000
0000
ffff
ffff
ffff
ffff
ffff
ffff
ffff
ffff
ffff
ffff
ffff
ffff
ffff
ffff
ffff
0000
0000
0000
ENDCHAR
STARTCHAR Menu_dflt_outl_lefte
ENCODING 153
SWIDTH 96 0
DWIDTH 9 0
BBX 9 18 0 -18
BITMAP
0380
0c00
1000
2000
4000
4000
8000
8000
8000
8000
8000
8000
4000
4000
2000
1000
0c00
0380
ENDCHAR
STARTCHAR MenudeftRightEndCap
ENCODING 154
SWIDTH 96 0
DWIDTH 9 0
BBX 9 18 0 -18
BITMAP
e000
1800
0400
0200
0100
0100
0080
0080
0080
0080
0080
0080
0100
0100
0200
0400
1800
e000
ENDCHAR
STARTCHAR MenuDfltOutlineMidd1
ENCODING 155
SWIDTH 96 0
DWIDTH 1 0
BBX 1 18 0 -18
BITMAP
80
00
00
00
00
00
00
00
00
00
00
00
00
00
00
00
00
80
ENDCHAR
STARTCHAR MenuDfltOutlineMid2
ENCODING 156
SWIDTH 96 0
DWIDTH 2 0
BBX 2 18 0 -18
BITMAP
c0
00
00
00
00
00
00
00
00
00
00
00
00
00
00
00
00
c0
ENDCHAR
STARTCHAR MenuDfltOutlineMid4
ENCODING 157
SWIDTH 96 0
DWIDTH 4 0
BBX 4 18 0 -18
BITMAP
f0
00
00
00
00
00
00
00
00
00
00
00
00
00
00
00
00
f0
ENDCHAR
STARTCHAR MenuDfltOutlineMid8
ENCODING 158
SWIDTH 96 0
DWIDTH 8 0
BBX 8 18 0 -18
BITMAP
ff
00
00
00
00
00
00
00
00
00
00
00
00
00
00
00
00
ff
ENDCHAR
STARTCHAR MenuDfltOutlineMid16
ENCODING 159
SWIDTH 96 0
DWIDTH 16 0
BBX 16 18 0 -18
BITMAP
ffff
0000
0000
0000
0000
0000
0000
0000
0000
0000
0000
0000
0000
0000
0000
0000
0000
ffff
ENDCHAR
STARTCHAR ButtonSpecial-UL
ENCODING 160
SWIDTH 96 0
DWIDTH 7 0
BBX 7 7 0 -7
BITMAP
0e
30
40
40
80
80
80
ENDCHAR
STARTCHAR ButtonSpecial-LL`
ENCODING 161
SWIDTH 96 0
DWIDTH 6 0
BBX 7 7 0 -7
BITMAP
80
80
80
40
40
30
0e
ENDCHAR
STARTCHAR UpperleftResizeCorne
ENCODING 162
SWIDTH 96 0
DWIDTH 11 0
BBX 11 11 0 -11
BITMAP
ffe0
8020
8020
8020
8fe0
8800
8800
8800
8800
8800
f800
ENDCHAR
STARTCHAR UpperRightResizeCorn
ENCODING 163
SWIDTH 96 0
DWIDTH 11 0
BBX 11 11 0 -11
BITMAP
ffe0
8020
8020
8020
fe20
0220
0220
0220
0220
0220
03e0
ENDCHAR
STARTCHAR LowerRightResizeCorn
ENCODING 164
SWIDTH 96 0
DWIDTH 11 0
BBX 11 11 0 -11
BITMAP
03e0
0220
0220
0220
0220
0220
fe20
8020
8020
8020
ffe0
ENDCHAR
STARTCHAR LowerLeftResizeCorne
ENCODING 165
SWIDTH 96 0
DWIDTH 11 0
BBX 11 11 0 -11
BITMAP
f800
8800
8800
8800
8800
8800
8fe0
8020
8020
8020
ffe0
ENDCHAR
STARTCHAR Vert_Sbar_no_back_ou
ENCODING 166
SWIDTH 96 0
DWIDTH 15 0
BBX 15 47 0 -47
BITMAP
7ffc
8006
8006
8006
8006
8206
8506
8a86
9546
8a86
8006
8006
8006
8006
8006
fffe
8006
8006
8006
8006
8006
8006
8006
8006
8006
8006
8006
8006
8006
8006
fffe
8006
8006
8006
8006
8006
9fe6
9fe6
8fc6
8786
8306
8006
8006
8006
8006
fffe
7ffc
ENDCHAR
STARTCHAR Vert_Sb_no_forw_outl
ENCODING 167
SWIDTH 96 0
DWIDTH 15 0
BBX 15 47 0 -47
BITMAP
7ffc
8006
8006
8006
8006
8306
8786
8fc6
9fe6
9fe6
8006
8006
8006
8006
8006
fffe
8006
8006
8006
8006
8006
8006
8006
8006
8006
8006
8006
8006
8006
8006
fffe
8006
8006
8006
8006
8006
8a86
9546
8a86
8506
8206
8006
8006
8006
8006
fffe
7ffc
ENDCHAR
STARTCHAR Vert_Sb_no_both_outl
ENCODING 168
SWIDTH 96 0
DWIDTH 15 0
BBX 15 47 0 -47
BITMAP
7ffc
8006
8006
8006
8006
8206
8506
8a86
9546
8a86
8006
8006
8006
8006
8006
fffe
8006
8006
8006
8006
8006
8006
8006
8006
8006
8006
8006
8006
8006
8006
fffe
8006
8006
8006
8006
8006
8a86
9546
8a86
8506
8206
8006
8006
8006
8006
fffe
7ffc
ENDCHAR
STARTCHAR Horiz_Sb_no_back_out
ENCODING 169
SWIDTH 96 0
DWIDTH 47 0
BBX 47 15 0 -15
BITMAP
7ffffffffffc
800100020006
800100020006
800100020c06
808100020e06
814100020f06
828100020f86
854100020f86
828100020f06
814100020e06
808100020c06
800100020006
800100020006
fffffffffffe
7ffffffffffc
ENDCHAR
STARTCHAR Horiz_Sb_no_forw_out
ENCODING 170
SWIDTH 96 0
DWIDTH 47 0
BBX 47 15 0 -15
BITMAP
7ffffffffffc
800100020006
800100020006
80c100020406
81c100020a06
83c100020506
87c100020a86
87c100020506
83c100020a06
81c100020406
80c100020006
800100020006
800100020006
fffffffffffe
7ffffffffffc
ENDCHAR
STARTCHAR Horiz_Sb_no_both_out
ENCODING 171
SWIDTH 96 0
DWIDTH 47 0
BBX 47 15 0 -15
BITMAP
7ffffffffffc
800100020006
800100020006
800100020406
808100020a06
814100020506
828100020a86
854100020506
828100020a06
814100020406
808100020006
800100020006
800100020006
fffffffffffe
7ffffffffffc
ENDCHAR
STARTCHAR horiz-slider-control
ENCODING 172
SWIDTH 96 0
DWIDTH 10 0
BBX 10 14 0 -14
BITMAP
7f80
80c0
80c0
80c0
80c0
80c0
80c0
80c0
80c0
80c0
80c0
80c0
ffc0
7f80
ENDCHAR
STARTCHAR horiz-slider-left-en
ENCODING 173
SWIDTH 96 0
DWIDTH 3 0
BBX 3 5 0 -5
BITMAP
60
80
80
80
60
ENDCHAR
STARTCHAR horiz_slider-right_e
ENCODING 174
SWIDTH 96 0
DWIDTH 3 0
BBX 3 5 0 -5
BITMAP
c0
20
20
20
c0
ENDCHAR
STARTCHAR horiz-slider-outl-1
ENCODING 175
SWIDTH 96 0
DWIDTH 1 0
BBX 1 5 0 -5
BITMAP
80
00
00
00
80
ENDCHAR
STARTCHAR horiz-slider-outline
ENCODING 176
SWIDTH 96 0
DWIDTH 2 0
BBX 2 5 0 -5
BITMAP
c0
00
00
00
c0
ENDCHAR
STARTCHAR horiz-slider-outline
ENCODING 177
SWIDTH 96 0
DWIDTH 4 0
BBX 4 5 0 -5
BITMAP
f0
00
00
00
f0
ENDCHAR
STARTCHAR horiz-slider-outline
ENCODING 178
SWIDTH 96 0
DWIDTH 8 0
BBX 8 5 0 -5
BITMAP
ff
00
00
00
ff
ENDCHAR
STARTCHAR horiz-slider-outline
ENCODING 179
SWIDTH 96 0
DWIDTH 16 0
BBX 16 5 0 -5
BITMAP
ffff
0000
0000
0000
ffff
ENDCHAR
STARTCHAR vertslidertopendcap
ENCODING 180
SWIDTH 96 0
DWIDTH 5 0
BBX 5 3 0 -3
BITMAP
70
88
88
ENDCHAR
STARTCHAR vetsliderbottendcap
ENCODING 181
SWIDTH 96 0
DWIDTH 5 0
BBX 5 3 0 -3
BITMAP
88
88
70
ENDCHAR
STARTCHAR vert-slider_control
ENCODING 182
SWIDTH 96 0
DWIDTH 14 0
BBX 14 10 0 -10
BITMAP
7ff8
800c
800c
800c
800c
800c
800c
800c
fffc
7ff8
ENDCHAR
STARTCHAR PushPinOutDefTop
ENCODING 183
SWIDTH 96 0
DWIDTH 26 0
BBX 26 14 0 -14
BITMAP
00070000
00040180
00040200
00047e00
00040200
07fc0200
00040200
00040200
3c040000
40040000
80040000
84040000
84000000
98000000
ENDCHAR
STARTCHAR PushPinOutDefBot
ENCODING 184
SWIDTH 96 0
DWIDTH 26 0
BBX 26 16 0 -16
BITMAP
00000000
00008000
00008040
00008040
00008040
00008040
03f88240
0000fe40
0000ffc0
0203c3c0
19038180
21030080
21000000
01000000
02000000
3c000000
ENDCHAR
STARTCHAR PushPinOutDefMiddle
ENCODING 185
SWIDTH 96 0
DWIDTH 26 0
BBX 26 13 0 -13
BITMAP
00000000
00030000
00030180
00030180
00037d80
00037d80
00037d80
00030180
00030000
00000000
00000000
18000000
18000000
ENDCHAR
STARTCHAR HorizGaugeLeftEndOut
ENCODING 186
SWIDTH 96 0
DWIDTH 4 0
BBX 4 11 0 -11
BITMAP
10
20
40
80
80
80
80
80
40
20
10
ENDCHAR
STARTCHAR HorizGaugeRightEndOu
ENCODING 187
SWIDTH 96 0
DWIDTH 4 0
BBX 4 11 0 -11
BITMAP
80
40
20
10
10
10
10
10
20
40
80
ENDCHAR
STARTCHAR HorizGaugeMiddle-1
ENCODING 188
SWIDTH 96 0
DWIDTH 1 0
BBX 1 11 0 -11
BITMAP
80
00
00
00
00
00
00
00
00
00
80
ENDCHAR
STARTCHAR HorizGaugeMiddle-2
ENCODING 189
SWIDTH 96 0
DWIDTH 2 0
BBX 2 11 0 -11
BITMAP
c0
00
00
00
00
00
00
00
00
00
c0
ENDCHAR
STARTCHAR HorizGaugeMiddle-4
ENCODING 190
SWIDTH 96 0
DWIDTH 4 0
BBX 4 11 0 -11
BITMAP
f0
00
00
00
00
00
00
00
00
00
f0
ENDCHAR
STARTCHAR HorizGaugeMiddle-8
ENCODING 191
SWIDTH 96 0
DWIDTH 8 0
BBX 8 11 0 -11
BITMAP
ff
00
00
00
00
00
00
00
00
00
ff
ENDCHAR
STARTCHAR HorizGaugeMiddle-16
ENCODING 192
SWIDTH 96 0
DWIDTH 16 0
BBX 16 11 0 -11
BITMAP
ffff
0000
0000
0000
0000
0000
0000
0000
0000
0000
ffff
ENDCHAR
STARTCHAR CheckBoxClearFill
ENCODING 193
SWIDTH 96 0
DWIDTH 15 0
BBX 15 14 0 -14
BITMAP
fffe
0006
0006
0006
0006
0006
0006
0006
0006
0006
0006
0006
0006
0006
ENDCHAR
STARTCHAR vert-sb3d-recess-Top
ENCODING 194
SWIDTH 96 0
DWIDTH 14 0
BBX 14 15 0 -15
BITMAP
fffc
8000
8000
8000
8000
8000
8000
8000
8000
8000
8000
8000
8000
8000
8000
ENDCHAR
STARTCHAR vert-sb-recess-Top-L
ENCODING 195
SWIDTH 96 0
DWIDTH 14 0
BBX 14 16 0 -16
BITMAP
0000
0004
0004
0004
0004
0004
0004
0004
0004
0004
0004
0004
0004
0004
0004
7ffc
ENDCHAR
STARTCHAR Dimple.UL
ENCODING 196
SWIDTH 96 0
DWIDTH 9 0
BBX 9 11 0 -11
BITMAP
0000
0000
0000
0000
0000
0780
0c00
0800
0800
0c00
0400
ENDCHAR
STARTCHAR Dimple.LR
ENCODING 197
SWIDTH 96 0
DWIDTH 10 0
BBX 10 11 0 -11
BITMAP
0000
0000
0000
0000
0000
0000
00c0
0040
0040
00c0
0380
ENDCHAR
STARTCHAR Dimple.Fill
ENCODING 198
SWIDTH 96 0
DWIDTH 9 0
BBX 9 10 0 -10
BITMAP
0000
0000
0000
0000
0000
0000
0300
0780
0780
0300
ENDCHAR
STARTCHAR Slider_offset_specia
ENCODING 199
SWIDTH 96 0
DWIDTH 5 0
BBX 5 1 0 -1
BITMAP
f8
ENDCHAR
STARTCHAR horiz-sb3d-top-reces
ENCODING 200
SWIDTH 96 0
DWIDTH 15 0
BBX 15 14 0 -14
BITMAP
fffe
8000
8000
8000
8000
8000
8000
8000
8000
8000
8000
8000
8000
8000
ENDCHAR
STARTCHAR Horiz-sb3d.-lower-re
ENCODING 201
SWIDTH 96 0
DWIDTH 16 0
BBX 16 14 0 -14
BITMAP
0001
0001
0001
0001
0001
0001
0001
0001
0001
0001
0001
0001
0001
7fff
ENDCHAR
STARTCHAR VertMenuBackMArk-UL
ENCODING 202
SWIDTH 96 0
DWIDTH 0 0
BBX 7 7 0 -7
BITMAP
10
20
20
40
40
80
80
ENDCHAR
STARTCHAR VertMenuBacMark-LR
ENCODING 203
SWIDTH 96 0
DWIDTH 0 0
BBX 7 7 0 -7
BITMAP
00
08
08
04
04
02
7e
ENDCHAR
STARTCHAR VertMenuBackMark-fil
ENCODING 204
SWIDTH 96 0
DWIDTH 0 0
BBX 6 6 0 -6
BITMAP
00
10
10
38
38
7c
ENDCHAR
STARTCHAR HorzMenubackmark-ul
ENCODING 205
SWIDTH 96 0
DWIDTH 0 0
BBX 7 4 0 -4
BITMAP
06
18
60
80
ENDCHAR
STARTCHAR HorzMenuMarkback-lr
ENCODING 206
SWIDTH 96 0
DWIDTH 0 0
BBX 7 7 0 -7
BITMAP
00
02
02
02
62
1a
06
ENDCHAR
STARTCHAR HorzMenuMarkBack-fil
ENCODING 207
SWIDTH 96 0
DWIDTH 0 0
BBX 6 7 0 -7
BITMAP
00
04
1c
7c
1c
04
00
ENDCHAR
STARTCHAR ActiveCaret
ENCODING 208
SWIDTH 96 0
DWIDTH 5 0
BBX 5 6 0 -4
BITMAP
20
20
70
70
f8
f8
ENDCHAR
STARTCHAR InactiveCaret
ENCODING 209
SWIDTH 96 0
DWIDTH 7 0
BBX 7 7 0 -5
BITMAP
10
28
54
aa
54
28
10
ENDCHAR
STARTCHAR VertgaugetopEndOutl
ENCODING 210
SWIDTH 96 0
DWIDTH 11 0
BBX 11 4 0 -4
BITMAP
1f00
2080
4040
8020
ENDCHAR
STARTCHAR VertgaugeBotEndOutl
ENCODING 211
SWIDTH 96 0
DWIDTH 11 0
BBX 11 4 0 -4
BITMAP
8020
4040
2080
1f00
ENDCHAR
STARTCHAR ButtonSpec-UR
ENCODING 212
SWIDTH 96 0
DWIDTH 7 0
BBX 7 7 0 -7
BITMAP
e0
18
04
04
02
02
02
ENDCHAR
STARTCHAR ButtonSpec-LR
ENCODING 213
SWIDTH 96 0
DWIDTH 7 0
BBX 7 7 0 -7
BITMAP
02
02
02
04
04
18
e0
ENDCHAR
STARTCHAR ButtonSpec-2D-LR
ENCODING 214
SWIDTH 96 0
DWIDTH 7 0
BBX 8 8 0 -8
BITMAP
03
03
03
06
06
1c
f8
e0
ENDCHAR
STARTCHAR ButtonSpecialDef-UL
ENCODING 215
SWIDTH 96 0
DWIDTH 7 0
BBX 7 7 0 -7
BITMAP
00
00
00
06
08
10
10
ENDCHAR
STARTCHAR ButtonSpecialDef-LL
ENCODING 216
SWIDTH 96 0
DWIDTH 7 0
BBX 7 4 0 -4
BITMAP
10
10
08
06
ENDCHAR
STARTCHAR ButtonSpecDef-UR
ENCODING 217
SWIDTH 96 0
DWIDTH 4 0
BBX 4 7 0 -7
BITMAP
00
00
00
c0
20
10
10
ENDCHAR
STARTCHAR ButtonSpecDef-LR
ENCODING 218
SWIDTH 96 0
DWIDTH 4 0
BBX 4 4 0 -4
BITMAP
10
10
20
c0
ENDCHAR
STARTCHAR HorizGaugeLeftEndFil
ENCODING 219
SWIDTH 96 0
DWIDTH 4 0
BBX 4 11 0 -11
BITMAP
00
10
30
70
70
70
70
70
30
10
00
ENDCHAR
STARTCHAR HorizGaugeMiddleFill
ENCODING 220
SWIDTH 96 0
DWIDTH 1 0
BBX 1 11 0 -11
BITMAP
00
80
80
80
80
80
80
80
80
80
00
ENDCHAR
STARTCHAR HorizGaugeMiddleFill
ENCODING 221
SWIDTH 96 0
DWIDTH 2 0
BBX 2 11 0 -11
BITMAP
00
c0
c0
c0
c0
c0
c0
c0
c0
c0
00
ENDCHAR
STARTCHAR HorizGaugeMiddleFill
ENCODING 222
SWIDTH 96 0
DWIDTH 4 0
BBX 4 11 0 -11
BITMAP
00
f0
f0
f0
f0
f0
f0
f0
f0
f0
00
ENDCHAR
STARTCHAR HorizGaugeMiddleFill
ENCODING 223
SWIDTH 96 0
DWIDTH 8 0
BBX 8 11 0 -11
BITMAP
00
ff
ff
ff
ff
ff
ff
ff
ff
ff
00
ENDCHAR
STARTCHAR HorizGaugeMiddleFill
ENCODING 224
SWIDTH 96 0
DWIDTH 16 0
BBX 16 11 0 -11
BITMAP
0000
ffff
ffff
ffff
ffff
ffff
ffff
ffff
ffff
ffff
0000
ENDCHAR
STARTCHAR HorizGaugeRightEndFi
ENCODING 225
SWIDTH 96 0
DWIDTH 4 0
BBX 4 11 0 -11
BITMAP
00
80
c0
e0
e0
e0
e0
e0
c0
80
00
ENDCHAR
STARTCHAR VertgaugetopEndFill
ENCODING 226
SWIDTH 96 0
DWIDTH 11 0
BBX 11 4 0 -4
BITMAP
0000
1f00
3f80
7fc0
ENDCHAR
STARTCHAR VertgaugeBotEndFill
ENCODING 227
SWIDTH 96 0
DWIDTH 11 0
BBX 11 4 0 -4
BITMAP
7fc0
3f80
1f00
0000
ENDCHAR
STARTCHAR TextScrollLeft
ENCODING 228
SWIDTH 96 0
DWIDTH 15 0
BBX 15 15 0 -15
BITMAP
7ff8
8004
8006
8186
8386
8786
8f86
8f86
8786
8386
8186
8006
8006
7ffe
3ff8
ENDCHAR
STARTCHAR TextScrollRight
ENCODING 229
SWIDTH 96 0
DWIDTH 15 0
BBX 15 15 0 -15
BITMAP
7ff8
8004
8006
8606
8706
8786
87c6
87c6
8786
8706
8606
8006
8006
7ffe
3ff8
ENDCHAR
STARTCHAR TextScrollLeft-Inv
ENCODING 230
SWIDTH 96 0
DWIDTH 15 0
BBX 15 15 0 -15
BITMAP
7ff8
8004
bff6
be76
bc76
b876
b076
b076
b876
bc76
be76
bff6
8006
7ffe
3ff8
ENDCHAR
STARTCHAR TextScrollRight-Inv
ENCODING 231
SWIDTH 96 0
DWIDTH 15 0
BBX 15 15 0 -15
BITMAP
7ff8
8004
bff6
b9f6
b8f6
b876
b836
b836
b876
b8f6
b9f6
bff6
8006
7ffe
3ff8
ENDCHAR
STARTCHAR NumericScrollNormal
ENCODING 232
SWIDTH 96 0
DWIDTH 28 0
BBX 28 15 0 -15
BITMAP
7fffffc0
80040020
80040030
80040030
83040030
8784ff30
8fc4ff30
9fe47e30
9fe43c30
80041830
80040030
80040030
80040030
7ffffff0
3fffffe0
ENDCHAR
STARTCHAR NumericScrollLeftInv
ENCODING 233
SWIDTH 96 0
DWIDTH 28 0
BBX 28 15 0 -15
BITMAP
7fffffc0
80040020
bff40030
bff40030
bcf40030
b874ff30
b034ff30
a0147e30
a0143c30
bff41830
bff40030
bff40030
80040030
7ffffff0
3fffffe0
ENDCHAR
STARTCHAR NumericScrollRightInv
ENCODING 234
SWIDTH 96 0
DWIDTH 28 0
BBX 28 15 0 -15
BITMAP
7fffffc0
80040020
8005ffb0
8005ffb0
8305ffb0
878500b0
8fc500b0
9fe581b0
9fe5c3b0
8005e7b0
8005ffb0
8005ffb0
80040030
7ffffff0
3fffffe0
ENDCHAR
ENDFONT
